GRF_file
version=1
nRows=10
nColumns=2
inDegrees=no
range 1 10
endheader
time	force
1	-0.201029363327186
2	0.188548657510829
3	-0.649866337446389
4	-1.04042037367281
5	-1.82830254504269
6	-1.25102024235295
7	1.86078405924193
8	-0.0774477119958294
9	-0.59900935683039
10	0.0210839398359111
